<?xml version="1.0" standalone="no"?>
<!DOCTYPE svg PUBLIC "-//W3C//DTD SVG 20010904//EN"
 "http://www.w3.org/TR/2001/REC-SVG-20010904/DTD/svg10.dtd">
<svg version="1.0" xmlns="http://www.w3.org/2000/svg"
 width="1200.000000pt" height="1200.000000pt" viewBox="0 0 1200.000000 1200.000000"
 preserveAspectRatio="xMidYMid meet">
<metadata>
Created by potrace 1.11, written by Peter Selinger 2001-2013
</metadata>
<g transform="translate(0.000000,1200.000000) scale(0.100000,-0.100000)"
fill="#000000" stroke="none">
<path d="M5758 11995 c-2 -2 -57 -6 -123 -9 -123 -7 -200 -13 -270 -21 -22 -3
-61 -7 -87 -10 -25 -2 -59 -6 -75 -9 -15 -2 -48 -7 -73 -11 -76 -11 -116 -17
-193 -31 -15 -2 -60 -11 -100 -20 -39 -8 -83 -17 -97 -19 -28 -5 -39 -7 -130
-30 -36 -9 -76 -18 -90 -21 -34 -7 -171 -44 -190 -51 -8 -3 -22 -7 -31 -9 -37
-8 -360 -118 -467 -160 -249 -97 -671 -296 -754 -355 -14 -11 -29 -19 -32 -19
-13 0 -366 -219 -441 -274 -11 -8 -57 -41 -102 -73 -94 -67 -306 -231 -343
-265 -14 -13 -38 -33 -53 -45 -102 -79 -421 -390 -557 -543 -47 -52 -87 -97
-90 -100 -74 -74 -342 -429 -465 -615 -99 -152 -107 -164 -188 -305 -83 -143
-94 -164 -168 -310 -58 -115 -86 -176 -171 -370 -34 -78 -58 -141 -138 -360
-11 -30 -90 -279 -95 -300 -2 -8 -22 -86 -44 -173 -23 -86 -43 -167 -45 -180
-15 -72 -47 -237 -52 -266 -3 -18 -8 -43 -10 -55 -2 -11 -7 -40 -10 -62 -2
-23 -6 -50 -8 -61 -2 -10 -7 -46 -11 -78 -4 -33 -8 -69 -10 -81 -2 -11 -6 -49
-10 -85 -3 -35 -8 -82 -10 -104 -18 -172 -24 -620 -12 -830 12 -200 30 -400
42 -463 1 -9 6 -42 10 -72 4 -30 9 -64 11 -75 2 -11 7 -40 9 -65 3 -25 8 -52
10 -60 2 -8 7 -28 10 -45 2 -16 7 -41 10 -55 3 -14 10 -45 15 -70 19 -98 44
-201 77 -325 19 -71 36 -134 38 -140 1 -5 4 -17 7 -25 3 -8 27 -80 53 -160 26
-80 61 -181 78 -225 17 -44 32 -84 33 -90 6 -32 139 -328 219 -487 76 -151
195 -367 268 -482 117 -186 294 -438 406 -576 53 -65 190 -228 211 -251 99
-104 236 -254 242 -263 4 -6 9 -8 12 -6 2 3 -20 46 -51 95 -76 125 -193 362
-247 502 -46 120 -103 287 -109 320 -2 10 -7 25 -10 33 -9 21 -29 101 -33 125
-1 11 -3 20 -4 20 -1 0 -3 7 -5 15 -2 8 -12 53 -23 100 -20 84 -32 146 -37
185 -2 11 -8 47 -14 80 -6 33 -13 74 -16 90 -3 17 -7 57 -11 90 -3 33 -7 71
-10 85 -40 239 -51 993 -19 1285 2 22 7 73 10 114 6 85 14 161 22 211 2 19 6
54 8 76 2 23 6 55 9 70 3 16 8 49 11 74 3 25 13 90 21 145 9 55 18 112 20 126
2 20 68 350 78 394 1 6 8 37 15 70 7 33 21 92 32 130 10 39 20 81 23 95 3 14
12 50 21 80 9 30 18 64 20 75 14 61 142 476 162 525 3 8 7 20 9 25 10 40 133
363 163 428 12 25 21 48 21 52 0 23 208 453 310 640 58 107 211 357 293 480
73 110 243 343 258 355 3 3 39 45 79 94 99 122 225 252 395 411 83 77 358 282
415 308 8 4 31 17 50 29 135 82 337 166 503 209 180 46 241 53 452 52 215 -1
183 1 360 -29 185 -32 510 -164 660 -268 234 -161 391 -391 479 -701 14 -50
28 -103 31 -120 2 -16 9 -55 15 -85 20 -111 24 -144 35 -315 11 -162 12 -510
2 -533 -14 -29 -57 -53 -88 -47 -35 7 -67 26 -75 44 -3 9 -8 106 -9 216 -4
261 -19 469 -40 575 -3 14 -7 41 -10 60 -22 165 -120 409 -216 538 -87 115
-243 242 -369 300 -124 56 -176 78 -210 87 -3 1 -12 5 -20 8 -27 11 -184 55
-220 61 -19 3 -46 8 -59 10 -67 14 -150 20 -281 20 -126 0 -190 -7 -300 -29
-14 -3 -37 -7 -52 -10 -100 -18 -317 -103 -453 -177 -309 -168 -633 -451 -905
-791 -8 -11 -20 -24 -26 -31 -51 -56 -364 -502 -364 -520 0 -3 -13 -24 -29
-48 -16 -24 -39 -61 -51 -83 -129 -229 -170 -305 -239 -446 -82 -169 -171
-374 -236 -539 -44 -114 -115 -309 -120 -330 -2 -8 -13 -42 -25 -75 -11 -33
-20 -61 -20 -62 0 -2 -1 -5 -1 -8 -1 -3 -2 -8 -3 -12 -1 -5 -12 -39 -25 -78
-12 -38 -24 -77 -26 -85 -2 -8 -11 -40 -20 -70 -23 -76 -80 -294 -91 -340 -2
-11 -6 -28 -8 -37 -4 -15 -33 -149 -52 -237 -3 -11 -11 -52 -19 -91 -8 -38
-17 -81 -20 -95 -2 -13 -7 -42 -10 -65 -3 -22 -12 -76 -20 -120 -8 -44 -17
-98 -20 -120 -3 -23 -7 -50 -9 -60 -2 -11 -7 -47 -10 -80 -4 -33 -9 -73 -11
-90 -10 -75 -23 -181 -23 -195 0 -8 -3 -42 -6 -75 -33 -349 -38 -849 -11
-1150 17 -192 23 -251 30 -295 2 -14 7 -43 10 -65 3 -22 8 -51 10 -65 3 -14 7
-43 10 -65 18 -125 83 -399 136 -570 168 -538 448 -989 795 -1279 38 -32 76
-63 85 -70 34 -28 137 -94 189 -123 68 -38 143 -77 150 -78 3 -1 22 -9 44 -18
21 -9 40 -17 42 -17 1 0 15 -5 31 -12 15 -6 33 -12 38 -13 6 -2 40 -12 76 -23
36 -11 83 -23 105 -26 21 -4 46 -8 54 -11 33 -10 218 -27 295 -27 49 0 218 11
245 16 14 3 41 8 60 10 77 11 116 18 133 27 9 5 17 8 17 5 0 -3 24 2 53 11 28
8 59 17 67 18 8 2 16 4 18 5 1 2 5 3 10 4 4 1 32 10 62 21 30 11 57 20 60 20
7 2 46 19 95 40 22 10 43 19 46 19 9 2 197 94 264 130 142 77 171 93 195 107
14 9 88 55 165 103 77 48 149 92 160 99 11 7 24 18 28 25 4 6 12 12 18 12 13
0 384 271 409 299 3 4 39 33 80 66 102 81 176 146 364 318 119 109 391 387
516 526 41 46 80 89 85 95 6 6 37 43 70 81 33 39 62 72 65 75 13 12 151 182
200 245 30 39 57 72 60 75 6 5 103 131 132 172 9 12 38 52 65 88 77 105 166
229 225 315 119 173 188 276 188 280 0 2 23 38 50 79 28 42 50 80 50 85 0 5 3
11 8 13 10 4 92 137 92 149 0 5 4 9 9 9 7 0 -8 71 -33 155 -11 38 -66 273 -71
305 -3 14 -9 44 -15 68 -5 23 -13 59 -16 80 -3 20 -10 54 -15 74 -5 20 -9 40
-8 45 1 4 0 10 -1 13 -3 9 -9 44 -16 90 -3 25 -8 54 -10 65 -4 19 -17 104 -28
185 -3 19 -8 62 -11 95 -3 33 -8 74 -11 90 -2 17 -6 55 -8 85 -3 30 -7 78 -10
105 -34 285 -39 1008 -11 1340 2 28 7 84 10 125 3 41 8 86 10 100 2 14 7 50
10 80 3 30 7 71 10 90 2 19 7 55 10 80 3 25 8 56 10 70 10 68 18 117 22 135 2
11 5 34 7 50 2 17 6 44 10 60 3 17 8 46 11 65 3 19 12 62 20 95 7 33 16 77 19
99 4 21 8 42 11 46 2 4 6 22 9 41 2 19 9 52 15 74 5 22 13 56 16 75 3 19 11
53 17 75 5 22 12 51 15 65 2 14 9 43 14 65 12 52 18 75 23 101 2 11 11 49 20
85 9 35 18 73 21 84 2 11 27 108 55 215 45 175 54 209 64 245 1 6 8 30 15 55
6 25 16 56 21 70 4 14 25 81 45 150 52 178 147 461 211 626 30 78 54 147 54
153 0 6 5 11 10 11 6 0 10 6 10 14 0 45 176 393 269 530 25 38 51 76 56 85 6
9 15 20 20 24 15 12 -20 33 -173 104 -373 175 -872 344 -1247 423 -22 5 -51
11 -65 14 -14 3 -50 10 -80 16 -30 6 -66 12 -80 15 -13 3 -42 7 -65 10 -59 9
-97 15 -125 20 -26 5 -107 16 -150 20 -14 2 -50 5 -80 9 -89 9 -170 17 -245
22 -71 6 -633 13 -637 9z"/>
<path d="M8847 11217 c-84 -104 -233 -373 -301 -542 -16 -38 -39 -92 -51 -120
-12 -27 -25 -61 -29 -75 -4 -14 -11 -34 -16 -45 -12 -25 -70 -185 -76 -205 -2
-8 -19 -62 -39 -119 -75 -220 -250 -841 -290 -1031 -3 -13 -18 -75 -29 -120
-13 -50 -38 -159 -42 -180 -3 -14 -7 -33 -10 -42 -3 -9 -7 -27 -9 -40 -5 -22
-11 -53 -20 -93 -20 -90 -94 -467 -94 -473 1 -4 0 -9 -1 -12 -3 -9 -10 -45
-15 -90 -4 -25 -8 -52 -10 -60 -2 -8 -7 -35 -10 -60 -3 -25 -8 -63 -11 -84 -4
-21 -8 -53 -9 -70 -2 -17 -6 -56 -10 -86 -10 -95 -14 -133 -21 -210 -3 -41 -8
-91 -10 -110 -22 -226 -22 -900 1 -1120 2 -25 7 -79 10 -120 3 -41 7 -93 9
-115 3 -22 7 -69 11 -105 3 -36 7 -76 9 -90 2 -14 7 -50 10 -80 4 -30 9 -62
11 -70 2 -8 7 -35 10 -60 3 -25 7 -56 9 -70 3 -14 10 -59 17 -100 7 -41 13
-77 14 -80 1 -3 5 -25 9 -50 16 -87 48 -238 76 -359 19 -80 24 -90 37 -79 8 7
18 19 22 28 3 8 41 76 84 151 42 75 77 141 77 147 0 6 4 12 8 14 16 6 363 683
355 691 -2 2 3 10 12 17 8 7 15 18 15 24 0 6 7 23 15 39 12 23 93 199 180 393
45 99 158 371 200 479 23 61 46 119 50 130 5 11 9 22 10 25 1 3 5 14 10 25 18
44 47 121 50 130 1 6 5 17 8 25 24 64 62 175 97 280 23 69 44 132 47 140 4 8
7 20 8 25 0 6 4 17 8 25 7 17 76 250 106 360 33 124 63 234 66 250 2 8 8 33
13 55 6 22 13 51 16 65 3 14 7 34 9 45 9 40 49 224 52 242 2 10 4 20 5 23 1 3
2 8 2 11 -1 4 7 49 18 102 11 52 22 117 25 144 3 27 8 60 10 73 3 13 7 40 9
60 20 140 28 212 32 260 2 30 6 73 8 95 25 228 25 620 0 865 -2 25 -6 65 -8
90 -3 25 -7 59 -10 75 -6 36 -17 108 -22 150 -2 17 -8 53 -14 80 -6 28 -13 64
-16 80 -17 98 -13 94 -223 232 -178 118 -227 149 -382 235 l-48 27 -34 -42z"/>
<path d="M9740 10652 c5 -20 11 -57 14 -82 3 -25 8 -55 11 -68 6 -33 19 -170
32 -337 9 -118 9 -528 -1 -635 -3 -41 -9 -102 -11 -135 -8 -88 -16 -167 -20
-195 -2 -14 -7 -50 -10 -80 -6 -55 -11 -93 -20 -140 -2 -14 -7 -45 -10 -70 -3
-25 -8 -52 -10 -60 -2 -8 -7 -33 -10 -55 -3 -23 -7 -50 -9 -60 -3 -11 -16 -81
-31 -155 -15 -74 -28 -142 -30 -150 -2 -8 -8 -33 -13 -55 -6 -22 -13 -51 -16
-65 -8 -40 -13 -61 -31 -130 -9 -36 -18 -72 -20 -80 -21 -102 -156 -548 -230
-760 -20 -58 -37 -109 -38 -115 -2 -5 -12 -35 -24 -65 -11 -30 -42 -113 -68
-185 -26 -71 -51 -134 -54 -140 -4 -5 -13 -28 -20 -50 -7 -22 -19 -53 -27 -70
-7 -16 -34 -82 -60 -145 -25 -63 -55 -133 -67 -155 -11 -22 -19 -41 -18 -43 8
-13 -403 -882 -421 -890 -5 -2 -8 -9 -8 -17 0 -7 -19 -48 -43 -91 -24 -44 -72
-133 -107 -199 -34 -66 -66 -124 -70 -130 -4 -5 -22 -37 -40 -70 -33 -60 -131
-233 -153 -269 -7 -11 -26 -43 -43 -70 l-31 -51 37 -120 c33 -108 88 -268 110
-320 4 -11 23 -58 41 -105 82 -214 215 -495 336 -710 66 -116 292 -462 335
-512 13 -14 32 -39 43 -54 36 -51 168 -207 229 -272 305 -325 603 -557 964
-754 l54 -29 101 105 c143 146 260 278 362 405 28 35 55 68 60 74 77 86 319
437 432 627 116 194 122 206 227 415 131 263 243 530 306 730 13 39 25 75 29
80 3 6 7 16 8 22 6 25 10 39 32 108 13 39 25 84 28 100 3 17 9 37 14 46 4 9
10 27 12 40 3 13 10 44 17 69 7 25 14 52 15 60 2 8 15 67 29 130 14 63 28 131
31 150 3 19 8 42 10 50 2 8 7 33 10 55 3 23 8 52 11 65 3 14 7 42 9 63 3 34 6
56 21 151 3 15 7 49 9 75 2 25 6 64 9 86 16 138 20 262 20 600 -1 349 -6 501
-20 580 -2 17 -6 48 -9 70 -7 68 -16 142 -19 162 -3 11 -7 44 -11 74 -4 30
-11 77 -16 104 -6 28 -12 68 -15 90 -3 22 -8 47 -10 55 -3 8 -8 26 -10 40 -13
73 -26 138 -34 165 -5 17 -11 41 -14 55 -8 43 -56 224 -67 250 -5 14 -11 36
-14 49 -16 83 -168 504 -246 679 -85 192 -235 493 -270 544 -11 14 -19 29 -19
32 0 10 -115 199 -199 326 -113 173 -258 369 -406 549 -166 203 -482 526 -665
681 -29 25 -58 50 -64 55 -25 23 -122 102 -132 108 -9 5 -10 -3 -4 -31z"/>
<path d="M7852 4289 c-29 -44 -52 -84 -52 -89 0 -4 -3 -10 -7 -12 -5 -1 -53
-70 -107 -153 -55 -82 -128 -190 -163 -238 -35 -48 -63 -92 -63 -97 0 -4 -4
-10 -8 -12 -4 -1 -30 -34 -57 -73 -27 -38 -52 -72 -55 -75 -3 -3 -45 -59 -95
-125 -49 -66 -92 -122 -95 -125 -3 -3 -21 -25 -40 -50 -19 -25 -42 -54 -52
-65 -9 -11 -55 -67 -103 -125 -48 -58 -99 -118 -113 -135 -15 -16 -59 -67 -98
-112 -122 -139 -152 -171 -389 -408 -225 -225 -292 -289 -410 -390 -32 -27
-66 -57 -75 -66 -91 -86 -436 -348 -645 -488 -263 -177 -644 -391 -835 -470
-30 -13 -68 -29 -85 -37 -98 -43 -382 -124 -493 -139 -20 -3 -46 -7 -57 -10
-112 -22 -471 -22 -576 1 -13 3 -33 7 -44 9 -82 18 -154 35 -172 41 -37 11
-26 -4 20 -25 23 -12 69 -37 102 -56 53 -31 405 -207 495 -248 19 -8 87 -36
150 -62 63 -25 124 -50 135 -55 61 -27 401 -139 443 -146 8 -1 21 -6 30 -10 9
-4 22 -8 27 -9 6 -2 46 -13 90 -25 44 -12 89 -23 100 -25 11 -2 70 -15 130
-29 232 -53 481 -94 665 -111 30 -3 75 -8 100 -10 75 -7 243 -18 282 -18 20 0
35 -3 33 -7 -2 -4 2 -7 10 -7 8 0 15 5 15 11 0 6 5 4 10 -4 7 -11 10 -11 10
-2 0 8 5 10 12 6 21 -13 301 -14 317 -1 12 9 13 9 7 0 -4 -7 -3 -13 3 -13 5 0
12 4 15 8 6 10 36 9 54 -2 7 -4 12 -2 12 5 0 8 5 7 17 -2 11 -9 14 -10 9 -2
-5 10 3 13 31 12 21 0 81 2 133 6 52 4 112 8 132 8 21 1 38 4 38 7 0 3 15 5
33 5 37 1 150 13 187 20 14 3 48 8 75 11 59 7 316 53 380 68 26 6 115 27 135
31 8 2 67 17 130 34 63 17 125 33 137 36 31 7 369 119 423 140 156 59 396 163
530 228 399 194 784 438 1135 721 55 44 102 83 105 86 3 3 37 32 75 65 90 77
95 82 95 92 0 4 -31 25 -68 45 -94 52 -123 70 -146 91 -11 9 -24 17 -29 17
-18 0 -297 206 -401 295 -214 185 -431 413 -588 615 -14 19 -45 58 -67 87 -23
29 -41 57 -41 62 0 5 -4 11 -8 13 -14 5 -165 236 -251 383 -102 174 -222 412
-299 592 -58 137 -74 173 -77 183 -1 3 -5 14 -10 25 -32 81 -98 262 -120 333
-9 28 -18 52 -19 52 -1 0 -25 -36 -54 -81z"/>
</g>
</svg>
